<?xml version="1.0"?>
<svg xmlns="http://www.w3.org/2000/svg" version="1.2" baseProfile="tiny" width="800" height="1100" viewBox="0 0 800 1100" stroke-linecap="round" stroke-linejoin="round">
<g id="gadm41_THA_2">
<path d="M 442.77 492.31 445.15 479.51 436.58 482.3 425.75 481.47 424.1 490.86 413.47 488.18 393.14 493.03 374.36 490.97 336.28 500.67 329.36 507.17 309.65 508.61 303.15 515.32 293.66 511.5 301.71 501.39 289.94 492.1 293.66 483.95 288.4 469.29 279.73 457.43 286.43 446.08 276.73 440.92 280.45 432.45 284.68 430.08 288.5 422.34 302.53 429.57 308.52 418.01 326.06 404.9 338.75 402.63 359.29 409.65 374.25 383.54 382.3 376.52 391.69 362.59 405 351.45 425.54 370.64 432.87 367.03 442.67 372.4 446.9 385.09 455.16 388.6 462.48 389.01 479.41 397.27 478.38 389.11 463.41 377.86 464.96 363.11 469.09 360.94 468.68 344.22 466.71 350 468.06 332.05 457.63 331.12 447.31 329.36 456.29 314.4 481.06 305.73 490.76 299.13 506.96 299.02 524.3 312.85 538.64 315.54 538.95 333.9 549.99 336.59 558.87 344.84 571.46 356.4 573.11 365.48 583.84 375.08 583.22 384.57 577.44 393.03 579.09 408.51 583.22 411.3 584.25 428.02 581.78 440.81 581.88 452.78 587.45 456.81 579.92 471.98 554.43 487.97 569.5 513.57 570.22 529.46 577.55 537.3 555.98 548.75 535.65 543.8 522.96 536.16 505.41 541.43 490.04 557.84 476.21 569.08 450.82 565.06 445.25 569.08 443.6 559.9 449.07 547.1 447.11 536.58 445.04 521.92 437.2 502.52 442.77 492.31 Z"/>
<path d="M 293.66 701.38 302.02 703.34 336.9 687.55 354.13 695.08 354.44 702.51 367.03 706.64 378.69 704.16 387.98 708.81 400.15 704.16 401.5 696.53 412.74 695.39 417.7 705.61 431.32 706.33 429.77 725.63 439.57 759.37 439.68 767.22 445.97 782.18 445.25 788.16 459.29 801.06 465.48 811.69 472.49 804.88 480.96 804.78 489.31 796.32 493.13 784.14 507.37 768.35 506.34 758.24 512.84 750.5 507.37 744.1 510.16 733.06 506.34 724.6 509.75 713.04 507.99 692.4 517.18 683.42 531.42 679.91 533.17 670.73 551.54 657.62 552.88 649.99 570.84 654.63 574.97 647.72 584.36 649.57 608.3 646.07 618.51 651.95 637.09 652.15 649.47 655.56 664.64 658.97 664.54 695.19 662.89 721.6 672.38 734.92 673.1 748.13 684.35 756.17 677.23 767.42 679.4 782.49 676.92 791.26 678.06 806.02 685.59 805.4 687.76 813.65 671.56 828.82 657.11 832.74 595.19 828.72 574.97 835.32 555.05 869.89 539.16 875.98 528.73 888.26 513.26 889.5 496.95 901.06 468.68 886.82 454.95 895.49 442.77 912.2 434.11 930.37 428.95 951.62 439.16 979.07 436.38 997.03 396.96 1030.57 383.44 1051.52 373.01 1058.84 350.83 1063.69 333.9 1082.89 309.65 1098.99 307.59 1077.62 294.79 1050.38 293.56 1043.98 230.3 963.7 207.18 965.45 202.13 963.29 187.57 937.07 175.81 926.65 160.64 918.29 156.72 902.61 170.55 890.53 173.23 883.21 187.06 872.78 177.36 857.2 181.28 850.49 180.87 833.36 184.58 825.62 201.09 804.68 197.48 792.91 208.42 787.65 224.72 795.49 237 786.31 248.98 787.65 257.75 795.08 261.67 780.22 275.91 752.56 285.71 746.27 299.13 731.51 301.6 722.22 286.02 708.91 293.66 701.38 Z"/>
<path d="M 455.16 388.6 446.9 385.09 442.67 372.4 432.87 367.03 425.02 370.23 402.22 349.18 398.4 338.55 389.22 338.65 386.33 310.17 378.28 292.73 379.83 261.57 377.25 248.46 392.52 233.81 392.93 224.31 399.85 204.29 410.58 198.62 428.02 232.36 444.22 231.43 454.13 215.54 463.41 209.04 468.26 224.42 484.15 240.82 485.91 250.94 488.8 270.13 495.61 276.43 506.96 299.02 490.76 299.13 481.06 305.73 456.29 314.4 447.31 329.36 457.63 331.12 468.06 332.05 466.71 350 468.68 344.22 472.29 355.57 469.09 360.94 464.96 363.11 463.41 377.86 478.38 389.11 478.17 397.16 461.66 388.7 455.16 388.6 Z"/>
<path d="M 9.05 386.33 15.24 405 28.66 399.95 55.28 397.27 65.19 390.04 77.78 389.42 86.65 374.15 95.22 373.63 94.91 370.13 97.28 361.35 91.19 351.03 88.2 337.52 94.29 336.17 95.63 321.83 90.99 318.22 90.47 301.71 85.41 292.73 88.41 269.82 95.84 253 103.47 243.4 107.29 245.57 122.05 243.2 130.61 237.21 134.22 222.97 143.92 219.05 147.54 201.2 167.14 205.84 176.95 202.64 186.65 189.95 199.96 184.27 216.78 228.75 232.36 228.85 246.5 261.87 249.08 280.04 253.62 291.9 248.36 306.87 254.24 322.55 252.28 342.99 222.14 360.22 192.32 364.55 183.55 374.87 170.86 380.03 149.29 389.63 143.2 395.61 136.29 420.9 129.99 422.96 116.89 439.27 109.35 445.04 88.41 443.08 75.92 449.79 68.18 447.62 50.02 433.49 41.04 436.07 34.33 451.34 20.09 451.34 1 404.8 9.05 386.33 Z"/>
<path d="M 454.13 215.54 445.97 229.68 437.61 234.63 428.02 232.36 410.58 198.62 400.46 204.71 379.31 193.56 374.67 183.96 366.31 177.36 350.62 178.49 346.29 167.66 345.46 145.78 332.15 138.14 324.62 128.55 309.86 133.09 302.43 130.1 301.91 117.4 289.12 100.27 284.37 89.23 263.11 75.2 271.78 65.08 277.15 55.49 288.81 55.9 308.72 74.27 326.58 73.03 337.72 80.25 345.98 79.43 357.23 85.21 392.93 88.2 397.27 85.52 409.03 69.93 418.83 48.06 432.25 34.64 455.88 24.32 459.18 14.31 463.31 7.09 465.17 1 476.52 7.4 468.37 8.74 470.74 11.63 469.91 17.1 478.58 32.06 478.17 48.47 483.23 64.57 473.01 68.28 473.84 82.32 480.44 96.04 478.07 105.74 486.43 116.89 492.62 118.54 505.83 121.63 523.16 130.82 521.72 139.59 511.19 153 513.77 165.8 507.17 184.07 497.57 195.52 510.88 210.59 514.08 227.3 507.37 231.95 507.27 237.83 494.27 242.78 484.46 241.75 468.26 224.42 463.41 209.04 454.13 215.54 Z"/>
<path d="M 571.46 355.57 558.87 344.84 551.85 337.72 538.95 333.9 538.64 315.54 524.3 312.85 506.96 299.02 495.61 276.43 488.8 270.13 485.91 250.94 484.46 241.75 493.65 242.89 506.44 238.45 507.37 231.95 514.08 227.3 510.88 210.59 497.57 195.52 507.17 184.07 513.77 165.8 511.19 153 521.72 139.59 526.36 123.08 542.36 123.49 563.82 114.51 573.83 116.68 584.67 110.39 600.25 95.42 614.39 89.23 622.43 92.22 629.14 102.34 638.12 108.01 644.52 98.93 644.11 86.34 662.27 86.55 677.75 80.98 691.47 78.91 707.57 92.33 710.25 100.48 705.51 107.81 714.07 113.48 716.96 121.94 723.87 129.17 740.59 131.02 754.63 135.77 773.3 128.55 778.36 122.05 783.11 119.47 788.58 133.71 799 140.62 793.22 152.39 784.35 157.24 779.81 171.37 765.46 183.96 754.32 191.19 749.16 200.06 735.12 204.5 721.29 220.29 730.17 230.4 738.94 233.19 738.53 243.51 728 246.91 693.74 235.04 683.63 234.01 672.69 224.83 649.78 222.56 648.34 233.91 656.08 260.43 648.34 264.87 642.66 257.54 619.44 260.53 608.92 267.86 605.82 285.61 596.33 293.76 604.17 300.16 601.8 319.04 581.67 332.98 581.47 341.85 571.46 355.57 Z"/>
<path d="M 293.66 511.5 301.71 515.73 309.65 508.61 329.36 507.17 336.28 500.67 374.36 490.97 393.14 493.03 413.47 488.18 424.1 490.86 425.75 481.47 436.58 482.3 445.15 479.51 442.77 492.31 437.2 505.21 445.04 521.92 447.11 536.58 449.07 547.1 443.6 559.9 445.25 569.08 450.82 565.06 476.21 569.08 490.04 557.84 505.41 541.43 522.96 536.16 535.65 543.8 555.98 548.75 577.55 537.3 595.5 540.6 600.04 555.46 611.39 556.39 615 569.81 622.74 576.51 623.57 594.06 622.54 602.11 632.24 618.31 646.79 623.36 654.63 621.3 661.65 635.02 663.3 657.11 649.47 655.56 637.09 652.15 618.51 651.95 608.3 646.07 584.36 649.57 574.97 647.72 570.84 654.63 552.88 649.99 551.54 657.62 533.17 670.73 531.42 679.91 517.18 683.42 507.99 692.4 509.75 713.04 506.34 724.6 510.16 733.06 507.37 744.1 512.84 750.5 506.34 758.24 507.37 768.35 493.13 784.14 489.31 796.32 480.96 804.78 471.98 805.19 466.41 811.49 459.29 801.06 445.25 788.16 445.97 782.18 439.68 767.22 439.57 759.37 429.77 725.63 431.32 706.33 417.7 705.61 412.74 695.39 401.5 696.53 400.15 704.16 387.98 708.81 378.69 704.16 367.03 706.64 354.44 702.51 354.13 695.08 336.9 687.55 302.02 703.34 293.66 701.38 283.96 699.93 285.82 680.74 282.2 672.9 287.88 666.71 277.35 644.72 290.05 631.21 293.25 617.07 306.25 607.37 307.38 597.57 293.56 585.59 282.2 581.78 263.63 564.54 247.63 562.79 233.6 558.04 233.91 547.31 248.46 537.51 249.18 527.08 270.54 518 278.59 518.83 293.66 511.5 Z"/>
<path d="M 170.86 380.03 183.55 374.87 193.35 364.04 222.14 360.22 252.28 342.99 254.24 322.55 248.36 306.87 253.62 291.9 249.08 280.04 246.5 261.87 232.36 228.85 216.78 228.75 199.96 184.27 212.65 162.6 213.99 144.44 233.19 143.51 243.09 140.42 253.62 130.3 258.26 114.82 286.95 96.76 301.91 117.4 302.43 130.1 309.86 133.09 324.62 128.55 332.15 138.14 345.46 145.78 346.29 167.66 349.69 177.67 366.31 177.36 374.67 183.96 379.31 193.56 399.95 203.16 394.48 217.4 392.52 233.81 386.95 235.77 377.25 248.46 379.83 261.57 378.28 292.73 386.33 310.17 389.22 338.65 398.4 338.55 405 351.45 391.69 362.59 382.3 376.52 374.25 383.54 359.29 409.65 338.75 402.63 326.06 404.9 308.52 418.01 302.53 429.57 289.32 422.14 284.68 430.08 280.45 432.45 276.73 438.75 266 433.49 249.9 438.75 226.79 436.07 191.08 441.12 183.24 438.03 169.41 425.33 158.89 409.65 148.15 404.08 143.72 394.79 154.04 386.84 170.86 380.03 Z"/>
</g>
</svg>